<svg id="Layer_1" data-name="Layer 1" xmlns="http://www.w3.org/2000/svg" viewBox="0 0 543.95 59.67"><defs><style>.cls-1{fill:#fff;}.cls-1,.cls-2,.cls-3,.cls-4,.cls-5{stroke:#010101;stroke-miterlimit:10;stroke-width:0.75px;}.cls-2{fill:#7ca6d8;}.cls-3{fill:#d52b27;}.cls-4{fill:#86c440;}.cls-5,.cls-7{fill:#fed600;}.cls-6{font-size:48.16px;fill:#7ca5d7;font-family:ChelseaMarket-Regular, Chelsea Market;}.cls-8{fill:#d42a27;}.cls-9{fill:#85c441;}.cls-10{fill:#231f20;letter-spacing:0em;}</style></defs><title>faixa</title><polygon class="cls-1" points="0.65 51.99 30.23 0.75 59.8 51.99 0.65 51.99"/><line class="cls-1" x1="0.65" y1="51.99" x2="30.23" y2="41.32"/><line class="cls-1" x1="30.23" y1="41.32" x2="59.8" y2="51.99"/><line class="cls-1" x1="30.23" y1="41.32" x2="30.23" y2="0.75"/><polygon class="cls-2" points="24.5 43.39 30.23 33.47 35.95 43.39 24.5 43.39"/><line class="cls-2" x1="24.5" y1="43.39" x2="30.23" y2="41.32"/><line class="cls-2" x1="30.23" y1="41.32" x2="35.95" y2="43.39"/><line class="cls-2" x1="30.23" y1="41.32" x2="30.23" y2="33.47"/><polygon class="cls-3" points="0.65 52 8.5 38.39 16.35 52 0.65 52"/><line class="cls-3" x1="0.65" y1="52" x2="8.5" y2="49.16"/><line class="cls-3" x1="8.5" y1="49.16" x2="16.35" y2="52"/><line class="cls-3" x1="8.5" y1="49.16" x2="8.5" y2="38.39"/><polygon class="cls-4" points="44.1 52 51.95 38.39 59.8 52 44.1 52"/><line class="cls-4" x1="44.1" y1="52" x2="51.95" y2="49.16"/><line class="cls-4" x1="51.95" y1="49.16" x2="59.8" y2="52"/><line class="cls-4" x1="51.95" y1="49.16" x2="51.95" y2="38.39"/><polygon class="cls-5" points="22.38 14.35 30.23 0.75 38.08 14.35 22.38 14.35"/><line class="cls-5" x1="22.38" y1="14.35" x2="30.23" y2="11.52"/><line class="cls-5" x1="30.23" y1="11.52" x2="38.08" y2="14.35"/><line class="cls-5" x1="30.23" y1="11.52" x2="30.23" y2="0.75"/><text class="cls-6" transform="translate(65.18 46.78)">Patrulha<tspan class="cls-7" x="203.74" y="0">EU</tspan><tspan class="cls-8" x="264.4" y="0">RE</tspan><tspan class="cls-9" x="322.21" y="0">KA</tspan><tspan class="cls-10" x="383.91" y="0">.org</tspan></text></svg>